   
http://www.imdb.com/title/tt0882977/



Plot: A father goes undercover for the DEA in order to free his son who was imprisoned after being set up in drug deal. 



Director:
 Ric Roman Waugh

Writers:
 Justin Haythe, Ric Roman Waugh

Stars:
 Dwayne Johnson, Susan Sarandon, Jon Bernthal

Genres:
 Action | Drama | Thriller 

Country:
USA 



Format                                   : AVI
Format/Info                              : Audio Video Interleave
File size                                : 712 MiB
Duration                                 : 1h 51mn
Overall bit rate                         : 890 Kbps
Writing application                      : VirtualDubMod 1.5.10.2 (build 2540/release)
Writing library                          : VirtualDubMod build 2540/release

Video
ID                                       : 0
Format                                   : MPEG-4 Visual
Format profile                           : Advanced Simple@L5
Format settings, BVOP                    : 2
Format settings, QPel                    : No
Format settings, GMC                     : No warppoints
Format settings, Matrix                  : Default (H.263)
Muxing mode                              : Packed bitstream
Codec ID                                 : XVID
Codec ID/Hint                            : XviD
Duration                                 : 1h 51mn
Bit rate                                 : 752 Kbps
Width                                    : 640 pixels
Height                                   : 272 pixels
Display aspect ratio                     : 2.40:1
Original display aspect ratio            : 2.35:1
Frame rate                               : 23.976 fps
Color space                              : YUV
Chroma subsampling                       : 4:2:0
Bit depth                                : 8 bits
Scan type                                : Progressive
Compression mode                         : Lossy
Bits/(Pixel*Frame)                       : 0.180
Stream size                              : 602 MiB (85%)
Writing library                          : XviD 64

Audio
ID                                       : 1
Format                                   : MPEG Audio
Format version                           : Version 1
Format profile                           : Layer 3
Mode                                     : Joint stereo
Mode extension                           : MS Stereo
Codec ID                                 : 55
Codec ID/Hint                            : MP3
Duration                                 : 1h 51mn
Bit rate mode                            : Constant
Bit rate                                 : 128 Kbps
Channel(s)                               : 2 channels
Sampling rate                            : 48.0 KHz
Compression mode                         : Lossy
Stream size                              : 102 MiB (14%)
Alignment                                : Aligned on interleaves
Interleave, duration                     : 42 ms (1.00 video frame)
Interleave, preload duration             : 504 ms
Writing library                          : LAME3.99r
Encoding settings                        : -m j -V 4 -q 2 -lowpass 17 -b 128





    	http://addpix.net/viewer.php?file=87758832823093971998.jpg
    	http://addpix.net/viewer.php?file=73628043667284446354.jpg
    	http://addpix.net/viewer.php?file=22702064225747402357.jpg
    	http://addpix.net/viewer.php?file=19297852501351396420.jpg
    	http://addpix.net/viewer.php?file=10516812997907449383.jpg
    	http://addpix.net/viewer.php?file=64147260170861157494.jpg

